<?xml version="1.0" encoding="utf-8"?>
<!-- Generator: Adobe Illustrator 25.4.1, SVG Export Plug-In . SVG Version: 6.00 Build 0)  -->
<svg version="1.1" id="Capa_1" xmlns="http://www.w3.org/2000/svg" xmlns:xlink="http://www.w3.org/1999/xlink" x="0px" y="0px"
	 viewBox="0 0 595.28 793.7" style="enable-background:new 0 0 595.28 793.7;" xml:space="preserve">
<style type="text/css">
	.st0{fill:#FFFFFF;stroke:#000000;stroke-width:0.25;stroke-miterlimit:10;}
	.st1{fill:#FFFFFF;stroke:#000000;stroke-width:0.75;stroke-miterlimit:10;}
	.st2{fill:#7DB272;}
	.st3{fill:#87C17C;stroke:#7FBE69;stroke-miterlimit:10;}
	.st4{fill:none;stroke:#101911;stroke-width:0.75;stroke-miterlimit:10;}
	.st5{fill:#87C17C;}
	.st6{fill:#FFFFFF;stroke:#000000;stroke-width:0.5;stroke-miterlimit:10;}
	.st7{fill:#8175B5;}
	.st8{fill:#8275B5;}
	.st9{fill:#8276B5;}
	.st10{fill:#D7CFE8;}
	.st11{fill:#FFFFFF;}
</style>
<path class="st11" d="M475.56,422.56c-3.8-9.36-10.13-17.26-20.76-20.1c-3.6-0.96-2.29-3.56-1.79-5.61
	c1.66-6.8,3.03-13.65,2.41-20.67c-0.97-11.07-2.35-22.14-5.09-32.91c-5.58-21.93-15.16-41.5-34.81-54.53
	c-1.69-1.12-2.46-2.6-2.66-4.52c-0.34-3.3-0.68-6.6-1.05-9.89c-2.39-21.43-3.84-42.99-8.03-64.18c-2.25-11.38-3.51-23.07-8.67-33.68
	c-5.95-12.22-17.48-14.15-27.25-4.79c-5.1,4.89-8.9,10.74-12.39,16.79c-13.54,23.47-26.43,47.28-38.08,71.76
	c-0.97,2.03-1.55,4.35-4.17,5.27c-20.37,7.15-37.47,19.1-51.54,35.44c-0.96,1.11-2,2.45-3.78,1.71c-3.96-1.63-8.32-2.53-11.47-5.75
	c-20.1-20.59-41.72-39.59-62.28-59.69c-5.45-5.33-10.99-10.69-18.17-13.8c-11.26-4.87-21.26-0.34-24.21,11.09
	c-1.04,4.03-1.62,8.18-1.09,12.35c2.56,20.24,5.19,40.49,9.58,60.41c2.66,12.1,5.74,23.78-1.46,35.29c-0.25,0.4-0.3,0.95-0.39,1.43
	c-5.43,27.87-1.13,53.83,15.52,77.21c2.32,3.25,2.58,5.77,1.19,9.5c-6.07,16.37-9.52,33.2-6.67,50.76
	c6.48,39.89,33.75,68.95,73.08,77.69c13.22,2.94,26.16,3.08,37.22-6.64c4.81-4.22,4.65-4.15,7.97,1.62
	c13.85,24.11,34.56,37.39,60.8,39.37c9.64-0.39,17.47-1.71,25.1-4.12c23.39-7.37,40.69-21.34,48.74-45.24
	c2.55-7.56,4.17-15.36,5.33-23.23c0.51-3.5,1.85-4.99,5.69-5.24c20.93-1.37,37.68-11,49.16-28.24
	C485.2,466.9,484.5,444.63,475.56,422.56z M422.09,496.48c-2.66,0.31-5.26-0.03-7.89-0.65c-8.56-2.01-12.91,0.97-14.45,9.53
	c-1.59,8.81-2.94,17.68-5.01,26.37c-6.8,28.63-37.19,47.43-65.74,40.9c-20.48-4.68-37.95-24.04-40.98-44.87
	c-1.71-11.78-2.32-23.42,0.93-35.03c0.27-0.95,0.24-1.98,0.36-2.97c0.7-5.77-2.06-10.41-6.92-11.66c-5.07-1.31-10.22,1.6-11.84,7.38
	c-1.78,6.38-2.95,12.92-4.32,19.41c-1.78,8.44-3.17,16.98-5.97,25.18c-3.14,9.19-8.26,12.59-17.83,11.28
	c-45.51-6.24-67.98-43.35-65.04-79.82c0.77-9.6,3.2-19.02,7.45-27.78c3.58-7.39,2.74-13.87-2.43-20.33
	c-15.39-19.24-19.95-41.23-14.98-65.11c2.19-10.52,8.37-18.95,17.7-24.34c19.81-11.43,40.48-14.43,62.01-4.74
	c1.82,0.82,3.67,1.56,5.53,2.29c7.85,3.09,14.68,1.53,20.39-4.64c8.03-8.67,16.43-16.84,26.38-23.43
	c22.07-14.61,45.58-15.23,69.65-6.94c13.2,4.55,25.39,11.64,37.04,19.35c13.52,8.94,19.75,22.97,24.19,37.81
	c2.86,9.54,4.41,19.47,5.24,29.37c1.6,19.01-5,35.56-16.75,50.23c-2.8,3.49-5.99,6.67-8.99,10.01c-4,4.46-4.38,10.15-0.97,13.96
	c3.38,3.77,9.33,4.05,13.99,0.46c5.84-4.5,10.23-10.42,15.06-15.9c2.65-2.99,5.29-5.96,8.47-8.42c2.97-2.31,5.33-1.78,7.66,1.1
	c6.33,7.84,8,16.98,7.79,26.06C463.98,476.13,443.91,493.94,422.09,496.48z"/>
<path class="st11" d="M328.04,411.86c-4.21,9.35-8.14,20.66-15.22,30.3c-2.67,3.64-7.91,3.39-11.75,0.34
	c-7.53-5.98-15.16-11.86-21.83-18.84c-5.54-5.81-4.05-13.55,3.4-16.51c10.69-4.24,22.09-5.79,33.33-7.64
	C322.27,398.48,327.93,404.11,328.04,411.86z"/>
<path class="st11" d="M415.7,363.38c-0.38,2.84-2.04,4.84-4.45,6.21c-14.71,8.38-28.94,17.51-42.95,27.02
	c-4.73,3.21-8.82,2.53-11.4-1.24c-2.44-3.56-1.33-7.85,3.23-11.04c14.14-9.91,28.75-19.06,43.82-27.47c2.76-1.54,5.54-2.3,8.41-0.31
	C414.73,358.19,415.82,360.47,415.7,363.38z"/>
<path class="st11" d="M197.96,449.69c-4.08-0.43-7.06-2.42-7.51-6.63c-0.46-4.25,2.05-7.04,6.04-7.9
	c11.32-2.45,22.7-4.61,34.04-6.94c3.89-0.8,7.71-1.94,11.61-2.68c4.17-0.79,7.91,1.61,8.83,5.39c0.95,3.9-1.13,7.57-5.38,8.78
	c-15.31,4.37-31.18,6.18-46.64,9.89C198.63,449.68,198.29,449.67,197.96,449.69z"/>
<path class="st11" d="M255.99,448.9c-0.07,2.15-1.31,4.2-3.48,5.72c-11.57,8.09-23.12,16.21-34.73,24.24
	c-4.27,2.95-8.43,2.45-11.01-1.09c-2.52-3.45-1.75-7.76,2.51-10.8c11.35-8.11,22.74-16.16,34.33-23.91
	C249.48,439.12,255.92,442.11,255.99,448.9z"/>
<path class="st11" d="M203.49,400.63c13.43,1.82,26.87,3.57,40.28,5.51c4.4,0.64,7.55,4.73,6.93,8.32c-0.72,4.17-4.6,6.99-9.25,6.38
	c-9.99-1.32-19.95-2.84-29.94-4.22c-3.93-0.54-7.89-0.84-11.81-1.44c-4.77-0.72-7.71-3.94-7.32-7.75c0.4-3.94,3.71-6.44,8.56-6.48
	c0.83-0.01,1.66,0,2.49,0C203.46,400.84,203.47,400.74,203.49,400.63z"/>
<path class="st11" d="M362.56,410.07c-1.34-5.63,0.45-8.76,6.34-9.87c9.89-1.87,19.84-3.35,29.75-5.12
	c4.71-0.84,9.35-2.08,14.07-2.89c5.39-0.93,8.89,0.99,9.85,5.08c1.06,4.51-1.13,7.82-6.68,9.21c-6.23,1.56-12.45,3.32-18.93,3.57
	c-6.98,1.04-14,1.86-20.88,3.47C370.93,414.72,366.26,414.39,362.56,410.07z"/>
<path class="st11" d="M362.56,410.07c6.24,4.5,13.2,2.79,19.78,1.7c4.87-0.81,9.59-2.34,14.62-1.73
	c-6.82,2.51-14.13,2.44-21.13,4.02c-0.59,1.21-3.19-0.96-2.89,1.73c7.94,1.62,15.89,3.23,23.83,4.87c1.46,0.3,2.93,0.63,4.33,1.14
	c4.11,1.48,6.62,5.39,5.4,8.84c-1.45,4.09-4.46,6.14-8.92,5.29c-9.27-1.77-18.53-3.57-27.76-5.49c-2.88-0.6-5.32-2.13-6-5.27
	c-0.91-4.27,0.69-7.48,5.08-9.27C366.37,413.8,362.96,413.51,362.56,410.07z"/>
</svg>
